<?xml version="1.0"?>
<svg xmlns="http://www.w3.org/2000/svg" viewBox="0 0 512 512" class=""><g><path d="m480 458.667969c11.765625.035156 21.296875 9.566406 21.332031 21.332031v21.332031h-490.664062v-21.332031c.035156-11.765625 9.566406-21.296875 21.332031-21.332031zm0 0" fill="#a4b0c0" data-original="#A4B0C0" class=""/><path d="m181.332031 384h149.335938v32h-149.335938zm0 0" fill="#f1f2f2" data-original="#F1F2F2" class=""/><path d="m234.667969 416h42.664062v42.667969h-42.664062zm0 0" fill="#8395a7" data-original="#8395A7" class=""/><path d="m213.332031 145.707031v56.960938h-53.332031c0-24.109375 25.707031-46.1875 53.332031-56.960938zm0 0" fill="#feca57" data-original="#FECA57" class="" data-old_color="#feca57" style="fill:#F1D087"/><path d="m288 42.667969v10.664062l-.214844 1.816407-31.785156-1.816407c-10.621094.007813-21.234375.613281-31.785156 1.816407l-.214844-1.816407v-10.664062c0-17.675781 14.328125-32 32-32s32 14.324219 32 32zm0 0" fill="#8395a7" data-original="#8395A7" class=""/><path d="m330.667969 384h-149.335938v32h53.335938v42.667969h-202.667969v-202.667969c0-112.960938 83.519531-188.585938 192.214844-200.851562 10.550781-1.203126 21.164062-1.808594 31.785156-1.816407l31.785156 1.816407c46.601563 4.515624 90.742188 23.03125 126.613282 53.117187 42.691406 37.085937 66.71875 91.199219 65.601562 147.734375v202.667969h-202.667969v-42.667969h53.335938zm-74.667969-32h74.667969v-151.894531c0-28.265625-27.734375-61.4375-57.601563-61.4375h-26.453125c-11.433593.273437-22.714843 2.660156-33.28125 7.039062-27.625 10.773438-53.332031 32.851563-53.332031 56.960938h53.332031v106.664062c.035157 11.769531 9.566407 21.300781 21.335938 21.335938h21.332031zm0 0" fill="#00d2d3" data-original="#00D2D3" class="" data-old_color="#00d2d3" style="fill:#f6ebce"/><path d="m330.667969 352h-74.667969v-106.667969c0-17.671875 14.328125-32 32-32h10.667969c17.671875 0 32 14.328125 32 32zm0 0" fill="#fed049" data-original="#FED049" class="" data-old_color="#fed049" style="fill:#5F7D95"/><path d="m330.667969 200.105469v45.226562c0-17.671875-14.328125-32-32-32h-10.667969c-17.671875 0-32 14.328125-32 32v85.335938h-21.332031c-11.769531-.035157-21.300781-9.566407-21.335938-21.335938v-163.625c10.566407-4.378906 21.847657-6.765625 33.28125-7.039062h26.453125c29.867188 0 57.601563 33.171875 57.601563 61.4375zm0 0" fill="#fa5c66" data-original="#FA5C66" class="" style="fill:#C6E8E4" data-old_color="#fa5c66"/><g fill="#474c54"><path d="m202.667969 309.332031c0 17.675781 14.324219 32 32 32h10.664062v10.667969c0 5.890625 4.777344 10.667969 10.667969 10.667969h74.667969c5.890625 0 10.664062-4.777344 10.664062-10.667969v-151.894531c0-32.457031-31.496093-72.105469-68.265625-72.105469h-26.453125c-12.757812.265625-25.355469 2.902344-37.152343 7.777344-2.261719.875-4.523438 1.855468-6.773438 2.890625-27.53125 12.628906-53.332031 36.265625-53.332031 64 0 5.890625 4.773437 10.664062 10.664062 10.664062h42.667969zm117.332031 32h-53.332031v-96c0-11.78125 9.550781-21.332031 21.332031-21.332031h10.667969c11.78125 0 21.332031 9.550781 21.332031 21.332031zm-46.933594-192c24.171875 0 46.933594 28.609375 46.933594 50.773438v8.535156c-6.453125-3.855469-13.816406-5.917969-21.332031-5.972656h-10.667969c-23.5625 0-42.667969 19.101562-42.667969 42.664062v74.667969h-10.664062c-5.890625 0-10.667969-4.777344-10.667969-10.667969v-156.074219c7.296875-2.445312 14.921875-3.769531 22.613281-3.925781zm-100.0625 42.667969c6.679688-12.558594 17.027344-22.785156 29.664063-29.324219v29.324219zm0 0" data-original="#474C54" class="active-path" style="fill:#32322F" data-old_color="#474C54"/><path d="m490.667969 449.960938v-193.960938c.917969-59.570312-24.421875-116.527344-69.28125-155.734375-34.902344-29.40625-77.480469-48.234375-122.71875-54.261719v-3.335937c0-23.566407-19.105469-42.667969-42.667969-42.667969s-42.667969 19.101562-42.667969 42.667969v3.347656c-115.199219 17.015625-192 100.214844-192 209.984375v193.960938c-12.738281 4.503906-21.2773435 16.527343-21.332031 30.039062v21.332031c0 5.890625 4.777344 10.667969 10.667969 10.667969h490.664062c5.890625 0 10.667969-4.777344 10.667969-10.667969v-21.332031c-.054688-13.511719-8.59375-25.535156-21.332031-30.039062zm-234.667969-428.628907c11.78125 0 21.332031 9.550781 21.332031 21.335938v1.203125l-21.332031-1.203125c-7.0625 0-14.199219.363281-21.332031.882812v-.882812c0-11.785157 9.550781-21.335938 21.332031-21.335938zm-213.332031 234.667969c0-101.460938 73.4375-177.921875 182.75-190.261719 9.953125-1.121093 19.957031-1.703125 29.972656-1.738281l31.203125 1.769531c44.457031 4.246094 86.585938 21.878907 120.808594 50.570313 40.433594 34.992187 63.144531 86.203125 61.929687 139.660156v192h-181.332031v-21.332031h42.667969c5.890625 0 10.664062-4.777344 10.664062-10.667969v-32c0-5.890625-4.773437-10.667969-10.664062-10.667969h-149.335938c-5.890625 0-10.664062 4.777344-10.664062 10.667969v32c0 5.890625 4.773437 10.667969 10.664062 10.667969h42.667969v21.332031h-181.332031zm192 149.332031h-42.667969v-10.664062h128v10.664062zm32 21.335938v21.332031h-21.335938v-21.332031zm224 64h-469.335938v-10.667969c0-5.890625 4.777344-10.667969 10.667969-10.667969h448c5.890625 0 10.667969 4.777344 10.667969 10.667969zm0 0" data-original="#474C54" class="active-path" style="fill:#32322F" data-old_color="#474C54"/></g></g> </svg>
