<svg clip-rule="evenodd" fill-rule="evenodd" stroke-linejoin="round" stroke-miterlimit="2" viewBox="0 0 24 24" xmlns="http://www.w3.org/2000/svg" fill="#B23434" ><g transform="translate(-124.235 -29.917)"><path d="m133.235 34.917v-.5c0-.663.264-1.299.733-1.767.468-.469 1.104-.733 1.767-.733h1c.663 0 1.299.264 1.768.733.469.468.732 1.104.732 1.767v.5h5c.552 0 1 .448 1 1s-.448 1-1 1h-1v11c0 2.21-1.79 4-4 4-1.832 0-4.167 0-6 0-2.209 0-4-1.79-4-4v-11h-1c-.552 0-1-.448-1-1s.448-1 1-1zm8 2h-10v11c0 1.105.896 2 2 2h6c1.105 0 2-.895 2-2zm-5 4.586 1.293-1.293c.391-.39 1.024-.39 1.414 0 .391.391.391 1.024 0 1.414l-1.292 1.293 1.292 1.293c.391.391.391 1.024 0 1.414-.39.391-1.023.391-1.414 0l-1.293-1.292-1.293 1.292c-.39.391-1.023.391-1.414 0-.39-.39-.39-1.023 0-1.414l1.293-1.293-1.293-1.293c-.39-.39-.39-1.023 0-1.414.391-.39 1.024-.39 1.414 0zm1-6.586v-.5c0-.132-.052-.259-.146-.353s-.221-.147-.354-.147c-.327 0-.673 0-1 0-.132 0-.259.053-.353.147s-.147.221-.147.353v.5z"/></g></svg>